<svg width="70" height="70" viewBox="0 0 70 70" fill="none" xmlns="http://www.w3.org/2000/svg">
<path d="M1.19 44.2004C3.29 43.4308 5.46 43.046 7.77 43.046C12.46 43.046 16.555 44.5153 20.055 47.4538L9.065 58.4384C5.355 54.2405 2.73 49.4478 1.19 44.2004ZM47.46 27.3038C54.355 32.4463 61.81 33.7056 69.79 31.0819C69.895 31.8166 70 33.1459 70 35C70 38.6032 69.125 42.6262 67.48 47.069C65.835 51.4768 63.805 55.0451 61.425 57.7387L39.27 35.6647L47.46 27.3038ZM23.695 51.2319C27.405 56.5843 28.175 62.4264 25.97 68.7932C21 67.3589 16.555 65.1201 12.845 62.0416L23.695 51.2319ZM35.665 39.2679L57.75 61.4119C50.155 68.0586 41.23 70.8572 31.08 69.7728C31.815 67.4639 32.2 64.9451 32.2 62.2165C32.2 60.0476 31.71 57.4938 30.73 54.5903C29.75 51.6867 28.595 49.3079 27.3 47.4538L35.665 39.2679ZM23.835 43.7457C20.58 40.8421 16.8 39.023 12.53 38.1834C8.26 37.3788 4.165 37.6237 0.21 38.953C0.105 38.1834 0 36.8541 0 35C0 31.3968 0.875 27.3738 2.52 22.931C4.165 18.5232 6.195 14.9549 8.575 12.2613L31.885 35.6647L23.835 43.7457ZM47.46 20.0624C42.77 14.2903 41.685 7.99339 44.205 1.20676C46.375 1.76648 48.86 2.81596 51.66 4.42516C54.425 5.99938 56.7 7.5736 58.45 9.07786L47.46 20.0624ZM68.81 25.8345C66.71 26.5692 64.54 26.954 62.23 26.954C58.415 26.954 54.74 25.8345 51.24 23.5257L62.055 12.856C65.135 16.7041 67.375 21.0069 68.81 25.8345ZM35.665 31.8865L12.25 8.5881C19.845 1.9414 28.77 -0.857216 38.955 0.227246C38.185 2.5361 37.8 5.05485 37.8 7.7835C37.8 10.3022 38.36 13.1358 39.515 16.3193C40.67 19.4677 42 21.9865 43.75 23.8405L35.665 31.8865Z" fill="black"/>
</svg>
