<svg width="70" height="70" viewBox="0 0 70 70" fill="none" xmlns="http://www.w3.org/2000/svg">
<path d="M52.255 52.92L49.455 48.16L54.565 32.865L59.5 31.22L63 33.845C63 33.95 63 34.125 63 34.335C63 34.58 63.105 34.79 63.105 35C63.105 41.895 60.795 47.985 56.21 53.235L52.255 52.92ZM27.125 45.5L22.33 31.395L35 22.505L47.67 31.395L42.875 45.5H27.125ZM35 63.105C31.92 63.105 29.015 62.615 26.25 61.635L23.835 56.35L26.145 52.5H44.03L46.165 56.35L43.75 61.635C40.985 62.615 38.08 63.105 35 63.105ZM13.79 53.235C11.935 51.065 10.325 48.16 8.96 44.625C7.595 41.055 6.895 37.835 6.895 35C6.895 34.79 7 34.58 7 34.335C7 34.125 7 33.95 7 33.845L10.5 31.22L15.435 32.865L20.545 48.16L17.745 52.92L13.79 53.235ZM31.5 11.515V16.415L17.5 26.11L12.81 24.64L11.34 19.88C12.88 17.5 15.155 15.12 18.165 12.81C21.175 10.5 24.045 8.995 26.775 8.225L31.5 11.515ZM43.225 8.225C45.955 8.995 48.825 10.5 51.835 12.81C54.845 15.12 57.12 17.5 58.66 19.88L57.19 24.64L52.5 26.145L38.5 16.45V11.515L43.225 8.225ZM10.255 10.255C3.5 17.115 0 25.375 0 35C0 44.625 3.5 52.885 10.255 59.745C17.01 66.605 25.375 70 35 70C44.625 70 52.885 66.5 59.745 59.745C66.605 52.99 70 44.625 70 35C70 25.375 66.5 17.115 59.745 10.255C52.99 3.395 44.625 0 35 0C25.375 0 17.115 3.5 10.255 10.255Z" fill="black"/>
</svg>
