<svg width="70" height="70" viewBox="0 0 70 70" fill="none" xmlns="http://www.w3.org/2000/svg">
<path d="M49.5833 62.7278C46.3556 62.7278 43.75 59.4611 43.75 55.4167C43.75 51.4111 46.3556 48.1444 49.5833 48.1444C52.8111 48.1444 55.4167 51.4111 55.4167 55.4167C55.4167 59.4611 52.8111 62.7278 49.5833 62.7278ZM35 32.0833C30.1778 32.0833 26.25 28.8167 26.25 24.8111C26.25 20.7667 30.1778 17.5 35 17.5C39.8222 17.5 43.75 20.7667 43.75 24.8111C43.75 28.8167 39.8222 32.0833 35 32.0833ZM20.4167 62.7278C17.1889 62.7278 14.5833 59.4611 14.5833 55.4167C14.5833 51.4111 17.1889 48.1444 20.4167 48.1444C23.6444 48.1444 26.25 51.4111 26.25 55.4167C26.25 59.4611 23.6444 62.7278 20.4167 62.7278ZM35 20.4167C36.5944 20.4167 37.9167 21.7389 37.9167 23.3333C37.9167 24.9278 36.5944 26.25 35 26.25C33.4056 26.25 32.0833 24.9278 32.0833 23.3333C32.0833 21.7389 33.4056 20.4167 35 20.4167ZM61.25 35C60.0056 35 58.8 35.2722 57.7111 35.7778C55.8444 33.4056 53.3167 31.3833 50.2833 29.8278C52.5 26.7167 53.8222 22.9444 53.8222 18.8611C53.8222 18.7833 53.8222 18.7056 53.8222 18.6278C58.0611 17.7333 61.25 13.9611 61.25 9.41111C61.25 4.23889 57.0111 0 51.8389 0C49.1556 0 46.6667 1.12778 45.0333 2.91667C42.1167 1.08889 38.6944 0 35 0C31.3056 0 27.8444 1.08889 24.9667 2.91667C23.3333 1.12778 20.8444 0 18.1611 0C12.9889 0 8.75 4.23889 8.75 9.41111C8.75 13.9222 11.9389 17.6944 16.1389 18.6278C16.1389 18.7056 16.1389 18.7833 16.1389 18.8611C16.1389 22.9444 17.5 26.7556 19.6778 29.8278C16.6833 31.3833 14.1556 33.4056 12.2889 35.7778C11.2 35.2722 9.99444 35 8.75 35C3.88889 35 0 38.8889 0 43.75C0 48.6111 3.88889 52.5 8.75 52.5C8.82778 52.5 8.90555 52.5 8.98333 52.5C8.82778 53.4333 8.75 54.4444 8.75 55.4167C8.75 63.4667 13.9611 70 20.4167 70C24.3444 70 27.8056 67.55 29.9444 63.8167C31.5778 64.05 33.25 64.1667 35 64.1667C36.75 64.1667 38.4222 64.05 40.0556 63.8167C42.1944 67.55 45.6556 70 49.5833 70C56.0389 70 61.25 63.4667 61.25 55.4167C61.25 54.4444 61.1722 53.4333 61.0167 52.5C61.0944 52.5 61.1722 52.5 61.25 52.5C66.1111 52.5 70 48.6111 70 43.75C70 38.8889 66.1111 35 61.25 35Z" fill="black"/>
</svg>
