<svg width="70" height="70" viewBox="0 0 70 70" fill="none" xmlns="http://www.w3.org/2000/svg">
<path d="M46.1018 13.0233C50.838 13.0233 54.792 10.0279 54.792 6.51163C54.792 2.86512 50.838 0 46.1018 0C41.2787 0 37.4115 2.86512 37.4115 6.51163C37.4115 10.0279 41.2787 13.0233 46.1018 13.0233ZM30.4159 58.2139L34.761 43.9535L43.9292 50.4651V70H52.6195V45.5814L43.4513 39.0698L46.1018 29.3023C51.707 34.186 60.3973 37.4419 70 37.4419V30.9302C61.7008 30.9302 54.792 27.6744 51.2725 23.0512L46.9274 17.907C45.1893 15.8884 42.5822 14.6512 39.5841 14.6512C38.2371 14.6512 37.4115 14.9116 36.0646 14.9116L13.5133 22.0744V37.4419H22.2036V26.307L29.9814 24.0279L23.0292 50.4651L1.73805 47.2093L0 53.7209L30.4159 58.2139Z" fill="black"/>
</svg>
