<svg width="70" height="70" viewBox="0 0 70 70" fill="none" xmlns="http://www.w3.org/2000/svg">
<path d="M8.73363 55.2669L12.516 59.7147L4.46096 69.1043C3.48035 70.2986 1.72926 70.2986 0.748649 69.1043C-0.231962 67.91 -0.266984 65.892 0.748649 64.7389L8.73363 55.2669ZM57.0287 5.84792V0L35 25.9038L12.9713 0V5.84792L32.5135 28.8278L19.2402 44.5183C15.1076 41.059 9.36402 41.4708 5.68673 45.795L20.571 63.2975C24.2483 58.9734 24.5985 52.2194 21.6917 47.3599L57.0287 5.84792ZM69.2514 64.7389L61.2664 55.2669L57.484 59.7147L65.539 69.1043C66.5196 70.2986 68.2707 70.2986 69.2514 69.1043C70.232 67.91 70.267 65.892 69.2514 64.7389ZM50.7598 44.5183L39.9731 31.7517L37.4865 34.6757L48.3433 47.3599C45.4015 52.2194 45.7517 58.9734 49.429 63.2975L64.3133 45.795C60.636 41.4708 54.8924 41.059 50.7598 44.5183Z" fill="black"/>
</svg>
