<svg width="70" height="70" viewBox="0 0 70 70" fill="none" xmlns="http://www.w3.org/2000/svg">
<path d="M41.125 38.5C41.125 36.085 43.085 34.125 45.5 34.125C47.915 34.125 49.875 36.085 49.875 38.5C49.875 40.915 47.915 42.875 45.5 42.875C43.085 42.875 41.125 40.915 41.125 38.5ZM70 35V70H0V35C0 15.75 15.75 0 35 0C54.25 0 70 15.75 70 35ZM7 35C7 50.435 19.565 63 35 63C50.435 63 63 50.435 63 35C63 32.235 62.58 29.575 61.845 27.09C59.325 27.685 56.7 28 53.97 28C42.175 28 31.745 22.155 25.41 13.195C21.98 21.56 15.435 28.315 7.175 31.99C7 32.97 7 33.985 7 35ZM24.5 42.875C26.915 42.875 28.875 40.915 28.875 38.5C28.875 36.085 26.915 34.125 24.5 34.125C22.085 34.125 20.125 36.085 20.125 38.5C20.125 40.915 22.085 42.875 24.5 42.875Z" fill="black"/>
</svg>
