<svg width="70" height="70" viewBox="0 0 70 70" fill="none" xmlns="http://www.w3.org/2000/svg">
<path d="M59.64 9.975C53.69 4.2 46.655 0.875 38.5 0V12.67L70 30.8C69.02 22.75 65.555 15.75 59.64 9.975ZM35 70C47.04 70 56.56 65.17 63.595 55.51L52.71 49L21.245 67.2C25.62 69.055 30.24 70 35 70ZM38.5 32.935L67.025 49.245C68.565 45.955 69.58 42.49 70 38.885L38.5 20.755V32.935ZM6.58 55.335C8.89 58.52 11.41 61.11 14.175 63L45.64 45.15L35 39.025L6.58 55.335ZM31.64 0C28 0.315 24.5 1.26 21 2.8V39.025L31.64 32.935V0ZM0 35C0 39.865 1.05 44.695 3.115 49.42L14 42.98V7C4.655 14 0 23.275 0 35Z" fill="black"/>
</svg>
