<svg width="591" height="58" viewBox="0 0 591 58" fill="none" xmlns="http://www.w3.org/2000/svg">
<path d="M17.776 0.759998H26.8V1.4H26.288C25.9893 1.44266 25.712 1.592 25.456 1.848C25.2427 2.104 25.0507 2.40267 24.88 2.744C24.7093 3.08533 24.5813 3.46933 24.496 3.896C24.4107 4.28 24.368 4.62133 24.368 4.92V5.24C27.312 5.32533 29.9787 5.816 32.368 6.712C34.8 7.56533 36.8907 8.73866 38.64 10.232C40.3893 11.7253 41.7333 13.4747 42.672 15.48C43.6533 17.4427 44.144 19.576 44.144 21.88C44.144 24.3973 43.5893 26.68 42.48 28.728C41.4133 30.776 39.9627 32.5253 38.128 33.976C36.2933 35.4267 34.1813 36.5787 31.792 37.432C29.4453 38.2427 26.9707 38.6693 24.368 38.712V39.032C24.368 39.3307 24.4107 39.672 24.496 40.056C24.5813 40.44 24.7093 40.8027 24.88 41.144C25.0933 41.4853 25.328 41.784 25.584 42.04C25.84 42.2533 26.1387 42.36 26.48 42.36H26.8V43H17.776V42.36H18.096C18.3947 42.36 18.672 42.2533 18.928 42.04C19.2267 41.784 19.4613 41.4853 19.632 41.144C19.8027 40.8027 19.9307 40.44 20.016 40.056C20.144 39.672 20.208 39.3307 20.208 39.032V38.712C17.2213 38.6267 14.512 38.1573 12.08 37.304C9.648 36.408 7.55733 35.2133 5.808 33.72C4.10133 32.184 2.75733 30.4133 1.776 28.408C0.837333 26.4027 0.368 24.2267 0.368 21.88C0.368 19.4053 0.88 17.1653 1.904 15.16C2.97067 13.112 4.4 11.384 6.192 9.976C7.984 8.52533 10.0747 7.39467 12.464 6.584C14.896 5.77333 17.4773 5.32533 20.208 5.24V4.92C20.208 4.62133 20.144 4.28 20.016 3.896C19.9307 3.46933 19.8027 3.08533 19.632 2.744C19.4613 2.40267 19.248 2.104 18.992 1.848C18.736 1.592 18.4587 1.44266 18.16 1.4H17.776V0.759998ZM4.528 21.24C4.528 23.1173 4.95467 24.9733 5.808 26.808C6.704 28.6 7.87733 30.2213 9.328 31.672C10.7787 33.08 12.4427 34.232 14.32 35.128C16.1973 36.024 18.16 36.5147 20.208 36.6V7.352C17.648 7.39466 15.3867 7.84266 13.424 8.696C11.4613 9.54933 9.81867 10.6373 8.496 11.96C7.17333 13.24 6.17067 14.712 5.488 16.376C4.848 17.9973 4.528 19.6187 4.528 21.24ZM39.92 22.52C39.92 20.6427 39.5147 18.808 38.704 17.016C37.8933 15.224 36.784 13.624 35.376 12.216C33.968 10.808 32.3253 9.67733 30.448 8.824C28.5707 7.928 26.544 7.43733 24.368 7.352V36.6C26.7573 36.5147 28.912 36.0667 30.832 35.256C32.752 34.4027 34.3733 33.336 35.696 32.056C37.0613 30.7333 38.1067 29.2613 38.832 27.64C39.5573 25.976 39.92 24.2693 39.92 22.52ZM69.573 0.119999C72.901 0.119999 75.8877 0.717332 78.533 1.912C81.1783 3.064 83.4183 4.64267 85.253 6.648C87.1303 8.61067 88.5597 10.9147 89.541 13.56C90.565 16.1627 91.077 18.8933 91.077 21.752C91.077 24.952 90.4797 27.896 89.285 30.584C88.133 33.272 86.533 35.576 84.485 37.496C82.437 39.416 80.0477 40.9307 77.317 42.04C74.629 43.1067 71.749 43.64 68.677 43.64C65.3917 43.64 62.4263 43.0427 59.781 41.848C57.1783 40.6533 54.9597 39.0747 53.125 37.112C51.333 35.1493 49.9463 32.888 48.965 30.328C47.9837 27.768 47.493 25.1013 47.493 22.328C47.493 19.5973 47.9837 16.9093 48.965 14.264C49.9463 11.576 51.3757 9.18666 53.253 7.096C55.173 5.00533 57.4983 3.32 60.229 2.04C62.9597 0.759998 66.0743 0.119999 69.573 0.119999ZM69.509 41.4C72.3677 41.272 74.8637 40.632 76.997 39.48C79.173 38.2853 80.9863 36.792 82.437 35C83.8877 33.1653 84.9543 31.16 85.637 28.984C86.3623 26.808 86.725 24.6533 86.725 22.52C86.725 20.1733 86.2983 17.8053 85.445 15.416C84.5917 13.0267 83.3757 10.872 81.797 8.952C80.2183 6.98933 78.3197 5.41067 76.101 4.216C73.925 2.97866 71.4717 2.36 68.741 2.36C66.0957 2.36 63.7277 2.95733 61.637 4.152C59.5463 5.304 57.7543 6.79733 56.261 8.632C54.8103 10.4667 53.701 12.5147 52.933 14.776C52.165 17.0373 51.781 19.256 51.781 21.432C51.781 23.7787 52.229 26.1467 53.125 28.536C54.021 30.8827 55.2583 33.016 56.837 34.936C58.4157 36.856 60.2717 38.4133 62.405 39.608C64.581 40.8027 66.949 41.4 69.509 41.4ZM96.6925 42.36H97.0125C97.3538 42.36 97.6525 42.232 97.9085 41.976C98.1645 41.72 98.3778 41.4213 98.5485 41.08C98.7618 40.7387 98.9112 40.376 98.9965 39.992C99.0818 39.5653 99.1245 39.1813 99.1245 38.84V4.728C99.1245 4.42933 99.0818 4.088 98.9965 3.704C98.9112 3.32 98.7618 2.95733 98.5485 2.616C98.3778 2.27466 98.1645 1.99733 97.9085 1.784C97.6525 1.528 97.3752 1.4 97.0765 1.4H96.7565V0.759998H105.845V1.4H105.525C105.183 1.4 104.885 1.528 104.629 1.784C104.373 1.99733 104.138 2.27466 103.925 2.616C103.754 2.95733 103.605 3.32 103.477 3.704C103.391 4.088 103.349 4.42933 103.349 4.728V17.976L118.197 3.192C118.538 2.85066 118.709 2.44533 118.709 1.976C118.709 1.592 118.538 1.4 118.197 1.4V0.759998H125.109V1.4C124.255 1.44266 123.487 1.69866 122.805 2.168C122.165 2.63733 121.461 3.256 120.693 4.024L105.525 19.192C108.298 19.2773 110.538 19.8747 112.245 20.984C113.951 22.0933 115.295 23.6293 116.277 25.592L121.333 35.832C121.631 36.472 122.015 37.176 122.485 37.944C122.997 38.6693 123.551 39.3733 124.149 40.056C124.789 40.696 125.493 41.2507 126.261 41.72C127.029 42.1467 127.839 42.36 128.693 42.36V43H125.493C124.255 43 123.189 42.8293 122.293 42.488C121.397 42.104 120.607 41.6133 119.925 41.016C119.285 40.376 118.709 39.672 118.197 38.904C117.727 38.136 117.301 37.368 116.917 36.6L111.733 26.296C110.922 24.7173 109.791 23.5227 108.341 22.712C106.933 21.8587 105.269 21.3893 103.349 21.304V38.84C103.349 39.1813 103.391 39.544 103.477 39.928C103.562 40.312 103.69 40.696 103.861 41.08C104.031 41.4213 104.245 41.72 104.501 41.976C104.757 42.1893 105.034 42.3173 105.333 42.36H105.781V43H96.6925V42.36ZM158.026 13.752C156.789 13.752 155.893 13.3253 155.338 12.472C154.783 11.6187 154.506 10.6373 154.506 9.528C154.506 8.888 154.591 8.184 154.762 7.416C154.933 6.648 155.253 5.88 155.722 5.112C156.234 4.30133 156.938 3.512 157.834 2.744C158.73 1.93333 159.925 1.16533 161.418 0.439999L161.802 1.016C160.949 1.82667 160.266 2.53067 159.754 3.128C159.285 3.72533 158.922 4.28 158.666 4.792C158.41 5.304 158.239 5.77333 158.154 6.2C158.111 6.62667 158.09 7.07467 158.09 7.544C158.09 7.88533 158.197 8.14133 158.41 8.312C158.623 8.44 158.858 8.61066 159.114 8.824C159.498 9.08 159.839 9.336 160.138 9.592C160.479 9.80533 160.65 10.2747 160.65 11C160.65 11.768 160.394 12.4293 159.882 12.984C159.37 13.496 158.751 13.752 158.026 13.752ZM149.578 13.752C148.341 13.752 147.423 13.3253 146.826 12.472C146.271 11.6187 145.994 10.6373 145.994 9.528C145.994 8.888 146.079 8.20533 146.25 7.48C146.421 6.712 146.762 5.92267 147.274 5.112C147.786 4.30133 148.49 3.512 149.386 2.744C150.282 1.93333 151.477 1.16533 152.97 0.439999L153.354 1.016C152.501 1.82667 151.818 2.53067 151.306 3.128C150.837 3.72533 150.474 4.28 150.218 4.792C149.962 5.304 149.791 5.77333 149.706 6.2C149.663 6.62667 149.642 7.07467 149.642 7.544C149.642 7.88533 149.727 8.14133 149.898 8.312C150.111 8.48266 150.346 8.632 150.602 8.76C150.943 8.97333 151.285 9.22933 151.626 9.528C152.01 9.784 152.202 10.2747 152.202 11C152.202 11.768 151.946 12.4293 151.434 12.984C150.965 13.496 150.346 13.752 149.578 13.752ZM165.88 42.36H166.2C166.541 42.36 166.84 42.232 167.096 41.976C167.352 41.72 167.565 41.4213 167.736 41.08C167.949 40.7387 168.099 40.376 168.184 39.992C168.269 39.5653 168.312 39.1813 168.312 38.84V4.728C168.312 4.42933 168.269 4.088 168.184 3.704C168.099 3.32 167.949 2.95733 167.736 2.616C167.565 2.27466 167.352 1.99733 167.096 1.784C166.84 1.528 166.563 1.4 166.264 1.4H165.944V0.759998H175.032V1.4H174.712C174.371 1.4 174.072 1.528 173.816 1.784C173.56 1.99733 173.325 2.27466 173.112 2.616C172.941 2.95733 172.792 3.32 172.664 3.704C172.579 4.088 172.536 4.42933 172.536 4.728V17.976L187.384 3.192C187.725 2.85066 187.896 2.44533 187.896 1.976C187.896 1.592 187.725 1.4 187.384 1.4V0.759998H194.296V1.4C193.443 1.44266 192.675 1.69866 191.992 2.168C191.352 2.63733 190.648 3.256 189.88 4.024L174.712 19.192C177.485 19.2773 179.725 19.8747 181.432 20.984C183.139 22.0933 184.483 23.6293 185.464 25.592L190.52 35.832C190.819 36.472 191.203 37.176 191.672 37.944C192.184 38.6693 192.739 39.3733 193.336 40.056C193.976 40.696 194.68 41.2507 195.448 41.72C196.216 42.1467 197.027 42.36 197.88 42.36V43H194.68C193.443 43 192.376 42.8293 191.48 42.488C190.584 42.104 189.795 41.6133 189.112 41.016C188.472 40.376 187.896 39.672 187.384 38.904C186.915 38.136 186.488 37.368 186.104 36.6L180.92 26.296C180.109 24.7173 178.979 23.5227 177.528 22.712C176.12 21.8587 174.456 21.3893 172.536 21.304V38.84C172.536 39.1813 172.579 39.544 172.664 39.928C172.749 40.312 172.877 40.696 173.048 41.08C173.219 41.4213 173.432 41.72 173.688 41.976C173.944 42.1893 174.221 42.3173 174.52 42.36H174.968V43H165.88V42.36ZM213.45 15.672C215.754 15.672 217.738 16.0773 219.402 16.888C221.108 17.656 222.516 18.68 223.626 19.96C224.778 21.24 225.631 22.712 226.186 24.376C226.74 26.04 227.018 27.7467 227.018 29.496C227.018 31.2027 226.74 32.888 226.186 34.552C225.674 36.216 224.863 37.7093 223.754 39.032C222.687 40.3547 221.343 41.4213 219.722 42.232C218.1 43.0427 216.18 43.448 213.962 43.448C212.639 43.448 211.274 43.1067 209.866 42.424C208.5 41.6987 207.263 40.8027 206.154 39.736V52.92C206.154 53.2613 206.196 53.624 206.282 54.008C206.367 54.4347 206.495 54.8187 206.666 55.16C206.879 55.5013 207.092 55.8 207.306 56.056C207.562 56.312 207.86 56.44 208.202 56.44V57.08H199.882V56.44C200.18 56.44 200.458 56.312 200.714 56.056C200.97 55.8 201.183 55.5013 201.354 55.16C201.567 54.8187 201.716 54.4347 201.802 54.008C201.887 53.624 201.93 53.2613 201.93 52.92V19.896C201.93 19.512 201.908 19.1493 201.866 18.808C201.866 18.424 201.802 18.104 201.674 17.848C201.546 17.5493 201.332 17.3147 201.034 17.144C200.778 16.9307 200.394 16.8027 199.882 16.76V16.12H206.154V18.936C207.007 17.912 208.031 17.1227 209.226 16.568C210.463 15.9707 211.871 15.672 213.45 15.672ZM214.026 41.272C215.519 41.2293 216.82 40.888 217.93 40.248C219.039 39.608 219.956 38.776 220.682 37.752C221.407 36.728 221.94 35.5973 222.282 34.36C222.623 33.08 222.794 31.7573 222.794 30.392C222.794 28.856 222.58 27.3413 222.154 25.848C221.727 24.3547 221.108 23.032 220.298 21.88C219.487 20.6853 218.484 19.7253 217.29 19C216.138 18.232 214.815 17.848 213.322 17.848C212.426 17.848 211.53 18.0187 210.634 18.36C209.78 18.7013 209.012 19.192 208.33 19.832C207.69 20.472 207.156 21.24 206.73 22.136C206.346 22.9893 206.154 23.9493 206.154 25.016V33.4C206.154 34.552 206.388 35.6187 206.858 36.6C207.327 37.5387 207.924 38.3707 208.65 39.096C209.418 39.7787 210.271 40.312 211.21 40.696C212.148 41.08 213.087 41.272 214.026 41.272ZM249.651 43V39.736L249.331 40.056C248.264 41.1227 247.027 41.9547 245.619 42.552C244.254 43.1493 242.59 43.448 240.627 43.448C239.134 43.448 237.854 43.2773 236.787 42.936C235.72 42.5947 234.846 42.1253 234.163 41.528C233.48 40.888 232.968 40.1627 232.627 39.352C232.328 38.5413 232.179 37.688 232.179 36.792C232.179 35.3413 232.563 34.0613 233.331 32.952C234.142 31.8427 235.294 30.8613 236.787 30.008C238.28 29.1547 240.094 28.3867 242.227 27.704C244.403 26.9787 246.878 26.2747 249.651 25.592C249.566 23.928 249.224 22.584 248.627 21.56C248.03 20.536 247.326 19.7467 246.515 19.192C245.704 18.5947 244.851 18.2107 243.955 18.04C243.059 17.8267 242.291 17.72 241.651 17.72C240.542 17.72 239.56 17.8907 238.707 18.232C237.854 18.5307 237.107 18.9573 236.467 19.512C235.827 20.024 235.294 20.6213 234.867 21.304C234.483 21.9867 234.184 22.6693 233.971 23.352H233.395V18.36C233.779 18.36 234.227 18.232 234.739 17.976C235.251 17.6773 235.848 17.3573 236.531 17.016C237.256 16.6747 238.11 16.376 239.091 16.12C240.115 15.8213 241.331 15.672 242.739 15.672C245.086 15.672 246.984 15.9707 248.435 16.568C249.886 17.1653 250.995 17.9547 251.763 18.936C252.574 19.9173 253.107 21.048 253.363 22.328C253.619 23.5653 253.747 24.8453 253.747 26.168V38.84C253.747 39.6933 253.96 40.504 254.387 41.272C254.814 41.9973 255.39 42.36 256.115 42.36V43H249.651ZM249.651 36.92V27.768L249.011 27.896C247.987 28.152 246.728 28.4933 245.235 28.92C243.784 29.3467 242.398 29.9013 241.075 30.584C239.752 31.2667 238.622 32.0773 237.683 33.016C236.744 33.9547 236.275 35.0427 236.275 36.28C236.275 37.6453 236.83 38.776 237.939 39.672C239.048 40.568 240.499 41.016 242.291 41.016C243.699 41.016 244.936 40.7173 246.003 40.12C247.07 39.48 248.051 38.6693 248.947 37.688L249.651 36.92ZM285.621 40.696C285.28 40.696 284.96 40.7813 284.661 40.952C284.362 41.08 284.021 41.2507 283.637 41.464C282.912 41.8907 281.952 42.3387 280.757 42.808C279.562 43.2347 278.069 43.448 276.277 43.448C274.101 43.448 272.096 43.1067 270.261 42.424C268.469 41.6987 266.912 40.7173 265.589 39.48C264.266 38.2 263.242 36.728 262.517 35.064C261.792 33.3573 261.429 31.5227 261.429 29.56C261.429 27.7253 261.749 25.976 262.389 24.312C263.072 22.648 264.032 21.176 265.269 19.896C266.506 18.616 268.021 17.592 269.813 16.824C271.648 16.056 273.717 15.672 276.021 15.672C277.6 15.672 278.88 15.864 279.861 16.248C280.842 16.5893 281.674 16.9307 282.357 17.272C282.741 17.4853 283.104 17.656 283.445 17.784C283.829 17.912 284.213 17.976 284.597 17.976V22.84H283.957C283.744 22.0293 283.36 21.3253 282.805 20.728C282.25 20.088 281.61 19.5547 280.885 19.128C280.16 18.7013 279.37 18.3813 278.517 18.168C277.664 17.9547 276.832 17.848 276.021 17.848C274.272 17.848 272.736 18.168 271.413 18.808C270.09 19.4053 269.002 20.216 268.149 21.24C267.296 22.2213 266.656 23.352 266.229 24.632C265.802 25.912 265.589 27.2347 265.589 28.6C265.589 30.1787 265.824 31.736 266.293 33.272C266.805 34.7653 267.509 36.1093 268.405 37.304C269.344 38.4987 270.474 39.4587 271.797 40.184C273.162 40.9093 274.698 41.272 276.405 41.272C277.6 41.272 278.709 41.1013 279.733 40.76C280.757 40.4187 281.632 39.9707 282.357 39.416C283.125 38.8613 283.722 38.264 284.149 37.624C284.618 36.9413 284.896 36.3013 284.981 35.704H285.621V40.696ZM296.152 38.84C296.152 39.1813 296.195 39.5653 296.28 39.992C296.365 40.376 296.493 40.7387 296.664 41.08C296.835 41.4213 297.027 41.72 297.24 41.976C297.496 42.232 297.773 42.36 298.072 42.36V43H290.008V42.36C290.307 42.36 290.563 42.2533 290.776 42.04C291.032 41.784 291.245 41.4853 291.416 41.144C291.587 40.76 291.715 40.376 291.8 39.992C291.885 39.5653 291.928 39.1813 291.928 38.84V20.088C291.928 19.7893 291.885 19.448 291.8 19.064C291.715 18.68 291.587 18.3173 291.416 17.976C291.245 17.6347 291.032 17.3573 290.776 17.144C290.563 16.888 290.307 16.76 290.008 16.76V16.12H298.072V16.76C297.731 16.76 297.432 16.888 297.176 17.144C296.963 17.3573 296.771 17.6347 296.6 17.976C296.472 18.3173 296.365 18.68 296.28 19.064C296.195 19.448 296.152 19.7893 296.152 20.088V27.832H310.744V20.088C310.744 19.7893 310.701 19.448 310.616 19.064C310.531 18.68 310.403 18.3173 310.232 17.976C310.104 17.6347 309.912 17.3573 309.656 17.144C309.443 16.888 309.165 16.76 308.824 16.76V16.12H316.888V16.76C316.547 16.76 316.248 16.888 315.992 17.144C315.779 17.3573 315.587 17.6347 315.416 17.976C315.245 18.3173 315.117 18.68 315.032 19.064C314.989 19.448 314.968 19.7893 314.968 20.088V38.84C314.968 39.1813 315.011 39.5653 315.096 39.992C315.181 40.376 315.309 40.7387 315.48 41.08C315.651 41.4213 315.843 41.72 316.056 41.976C316.312 42.232 316.589 42.36 316.888 42.36V43H308.824V42.36C309.123 42.36 309.379 42.2533 309.592 42.04C309.848 41.784 310.061 41.4853 310.232 41.144C310.403 40.76 310.531 40.376 310.616 39.992C310.701 39.5653 310.744 39.1813 310.744 38.84V29.944H296.152V38.84ZM336.508 43.448C334.374 43.448 332.454 43.1067 330.748 42.424C329.041 41.6987 327.569 40.7387 326.332 39.544C325.137 38.3067 324.198 36.856 323.516 35.192C322.876 33.528 322.556 31.7147 322.556 29.752C322.556 27.6613 322.918 25.7627 323.644 24.056C324.369 22.3067 325.372 20.8133 326.652 19.576C327.932 18.3387 329.446 17.3787 331.196 16.696C332.945 16.0133 334.844 15.672 336.892 15.672C338.94 15.672 340.817 16.0133 342.524 16.696C344.23 17.336 345.702 18.2533 346.94 19.448C348.177 20.6427 349.137 22.072 349.82 23.736C350.502 25.3573 350.844 27.1493 350.844 29.112C350.844 30.9467 350.524 32.7387 349.884 34.488C349.286 36.1947 348.369 37.7093 347.132 39.032C345.937 40.3547 344.444 41.4213 342.652 42.232C340.902 43.0427 338.854 43.448 336.508 43.448ZM336.124 17.784C334.588 17.8693 333.222 18.2533 332.028 18.936C330.876 19.576 329.894 20.4293 329.084 21.496C328.316 22.52 327.718 23.6933 327.292 25.016C326.908 26.3387 326.716 27.6827 326.716 29.048C326.716 30.6267 326.95 32.1627 327.42 33.656C327.932 35.1067 328.636 36.408 329.532 37.56C330.47 38.712 331.58 39.6293 332.86 40.312C334.14 40.9947 335.569 41.336 337.148 41.336C338.726 41.336 340.113 40.9947 341.308 40.312C342.545 39.6293 343.569 38.7547 344.38 37.688C345.19 36.5787 345.788 35.3413 346.172 33.976C346.598 32.6107 346.812 31.2453 346.812 29.88C346.812 28.472 346.598 27.064 346.172 25.656C345.745 24.2053 345.084 22.904 344.188 21.752C343.292 20.5573 342.161 19.5973 340.796 18.872C339.473 18.1467 337.916 17.784 336.124 17.784ZM375.96 38.008C376.216 38.4773 376.557 38.968 376.984 39.48C377.41 39.992 377.88 40.4613 378.392 40.888C378.946 41.3147 379.501 41.6773 380.056 41.976C380.61 42.232 381.144 42.36 381.656 42.36V43H379.224C377.261 43 375.746 42.5947 374.68 41.784C373.613 40.9733 372.781 40.0133 372.184 38.904L369.176 33.208C368.706 32.312 367.917 31.544 366.808 30.904C365.698 30.2213 364.525 29.88 363.288 29.88V38.968C363.288 39.3093 363.309 39.672 363.352 40.056C363.437 40.44 363.565 40.8027 363.736 41.144C363.906 41.4853 364.12 41.784 364.376 42.04C364.632 42.2533 364.93 42.36 365.272 42.36V43H357.016V42.36C357.314 42.36 357.592 42.2533 357.848 42.04C358.146 41.784 358.381 41.4853 358.552 41.144C358.722 40.8027 358.85 40.44 358.936 40.056C359.021 39.672 359.064 39.3093 359.064 38.968V20.152C359.064 19.8533 359.021 19.512 358.936 19.128C358.85 18.7013 358.722 18.3173 358.552 17.976C358.424 17.6347 358.232 17.3573 357.976 17.144C357.72 16.888 357.4 16.76 357.016 16.76V16.12H365.208V16.76C364.909 16.76 364.632 16.888 364.376 17.144C364.162 17.3573 363.97 17.6347 363.8 17.976C363.629 18.3173 363.501 18.7013 363.416 19.128C363.33 19.512 363.288 19.8533 363.288 20.152V26.744C365.122 25.1227 366.936 23.5653 368.728 22.072C370.52 20.536 372.333 18.9573 374.168 17.336C374.168 17.2933 374.189 17.2507 374.232 17.208C374.274 17.1653 374.296 17.1227 374.296 17.08C374.296 16.8667 374.189 16.76 373.976 16.76V16.12H379.544V16.76C379.33 16.76 379.074 16.824 378.776 16.952C378.477 17.08 378.178 17.2293 377.88 17.4C377.538 17.5707 377.197 17.784 376.856 18.04C374.936 19.6613 373.016 21.3253 371.096 23.032C369.176 24.696 367.256 26.3387 365.336 27.96C367.17 27.96 368.664 28.3013 369.816 28.984C371.01 29.6667 372.013 30.7547 372.824 32.248L375.96 38.008ZM395.683 52.152C395.085 53.944 394.317 55.16 393.379 55.8C392.483 56.44 391.544 56.76 390.562 56.76C389.923 56.76 389.347 56.6533 388.835 56.44C388.323 56.2267 387.875 55.992 387.491 55.736C387.107 55.48 386.808 55.2453 386.595 55.032C386.424 54.8187 386.339 54.712 386.339 54.712L388.451 49.528C388.621 50.2107 388.835 50.7867 389.091 51.256C389.304 51.6827 389.603 52.0667 389.987 52.408C390.371 52.7493 390.84 52.92 391.395 52.92C392.419 52.92 393.229 52.1733 393.827 50.68L396.899 42.808L386.659 19.512C386.317 18.7867 385.955 18.1467 385.571 17.592C385.229 17.0373 384.632 16.76 383.779 16.76V16.12H392.035V16.76C391.864 16.76 391.651 16.9093 391.395 17.208C391.139 17.5067 391.01 17.8907 391.01 18.36C391.01 18.7013 391.096 19.0427 391.267 19.384L399.139 37.496L406.691 19C406.819 18.7013 406.883 18.424 406.883 18.168C406.883 17.7413 406.733 17.4 406.435 17.144C406.179 16.888 405.901 16.76 405.603 16.76V16.12H411.811V16.76C411.128 16.76 410.531 17.0587 410.019 17.656C409.549 18.2107 409.165 18.8507 408.867 19.576L395.683 52.152ZM445.067 38.84C445.067 39.1813 445.11 39.5653 445.195 39.992C445.28 40.376 445.408 40.7387 445.579 41.08C445.792 41.4213 446.027 41.72 446.283 41.976C446.539 42.232 446.838 42.36 447.179 42.36V43H438.859V42.36C439.2 42.36 439.499 42.2533 439.755 42.04C440.011 41.784 440.224 41.4853 440.395 41.144C440.566 40.76 440.694 40.376 440.779 39.992C440.864 39.5653 440.907 39.1813 440.907 38.84V21.56L430.219 43.576L419.979 22.84V38.84C419.979 39.1813 420.022 39.5653 420.107 39.992C420.192 40.376 420.32 40.7387 420.491 41.08C420.662 41.4213 420.875 41.72 421.131 41.976C421.387 42.232 421.686 42.36 422.027 42.36V43H415.819V42.36C416.16 42.36 416.459 42.232 416.715 41.976C416.971 41.72 417.163 41.4213 417.291 41.08C417.462 40.7387 417.59 40.376 417.675 39.992C417.76 39.5653 417.803 39.1813 417.803 38.84V20.088C417.803 19.32 417.696 18.5733 417.483 17.848C417.312 17.1227 416.758 16.76 415.819 16.76V16.12H421.515L431.307 36.152L441.099 16.12H447.179V16.76C446.539 16.76 446.027 17.1653 445.643 17.976C445.259 18.744 445.067 19.448 445.067 20.088V38.84ZM477.059 40.696C476.717 40.696 476.397 40.7813 476.099 40.952C475.8 41.08 475.459 41.2507 475.075 41.464C474.349 41.8907 473.389 42.3387 472.195 42.808C471 43.2347 469.507 43.448 467.715 43.448C465.539 43.448 463.533 43.1067 461.699 42.424C459.907 41.6987 458.349 40.7173 457.027 39.48C455.704 38.2 454.68 36.728 453.955 35.064C453.229 33.3573 452.867 31.5227 452.867 29.56C452.867 27.7253 453.187 25.976 453.827 24.312C454.509 22.648 455.469 21.176 456.707 19.896C457.944 18.616 459.459 17.592 461.251 16.824C463.085 16.056 465.155 15.672 467.458 15.672C469.037 15.672 470.317 15.864 471.299 16.248C472.28 16.5893 473.112 16.9307 473.795 17.272C474.179 17.4853 474.541 17.656 474.883 17.784C475.267 17.912 475.651 17.976 476.035 17.976V22.84H475.395C475.181 22.0293 474.797 21.3253 474.243 20.728C473.688 20.088 473.048 19.5547 472.323 19.128C471.597 18.7013 470.808 18.3813 469.955 18.168C469.101 17.9547 468.269 17.848 467.458 17.848C465.709 17.848 464.173 18.168 462.851 18.808C461.528 19.4053 460.44 20.216 459.587 21.24C458.733 22.2213 458.093 23.352 457.667 24.632C457.24 25.912 457.027 27.2347 457.027 28.6C457.027 30.1787 457.261 31.736 457.731 33.272C458.243 34.7653 458.947 36.1093 459.843 37.304C460.781 38.4987 461.912 39.4587 463.235 40.184C464.6 40.9093 466.136 41.272 467.843 41.272C469.037 41.272 470.147 41.1013 471.171 40.76C472.195 40.4187 473.069 39.9707 473.795 39.416C474.563 38.8613 475.16 38.264 475.587 37.624C476.056 36.9413 476.333 36.3013 476.419 35.704H477.059V40.696ZM500.71 38.008C500.966 38.4773 501.307 38.968 501.734 39.48C502.16 39.992 502.63 40.4613 503.142 40.888C503.696 41.3147 504.251 41.6773 504.806 41.976C505.36 42.232 505.894 42.36 506.406 42.36V43H503.974C502.011 43 500.496 42.5947 499.43 41.784C498.363 40.9733 497.531 40.0133 496.934 38.904L493.926 33.208C493.456 32.312 492.667 31.544 491.558 30.904C490.448 30.2213 489.275 29.88 488.038 29.88V38.968C488.038 39.3093 488.059 39.672 488.102 40.056C488.187 40.44 488.315 40.8027 488.486 41.144C488.656 41.4853 488.87 41.784 489.126 42.04C489.382 42.2533 489.68 42.36 490.022 42.36V43H481.766V42.36C482.064 42.36 482.342 42.2533 482.598 42.04C482.896 41.784 483.131 41.4853 483.302 41.144C483.472 40.8027 483.6 40.44 483.686 40.056C483.771 39.672 483.814 39.3093 483.814 38.968V20.152C483.814 19.8533 483.771 19.512 483.686 19.128C483.6 18.7013 483.472 18.3173 483.302 17.976C483.174 17.6347 482.982 17.3573 482.726 17.144C482.47 16.888 482.15 16.76 481.766 16.76V16.12H489.958V16.76C489.659 16.76 489.382 16.888 489.126 17.144C488.912 17.3573 488.72 17.6347 488.55 17.976C488.379 18.3173 488.251 18.7013 488.166 19.128C488.08 19.512 488.038 19.8533 488.038 20.152V26.744C489.872 25.1227 491.686 23.5653 493.478 22.072C495.27 20.536 497.083 18.9573 498.918 17.336C498.918 17.2933 498.939 17.2507 498.982 17.208C499.024 17.1653 499.046 17.1227 499.046 17.08C499.046 16.8667 498.939 16.76 498.726 16.76V16.12H504.294V16.76C504.08 16.76 503.824 16.824 503.526 16.952C503.227 17.08 502.928 17.2293 502.63 17.4C502.288 17.5707 501.947 17.784 501.606 18.04C499.686 19.6613 497.766 21.3253 495.846 23.032C493.926 24.696 492.006 26.3387 490.086 27.96C491.92 27.96 493.414 28.3013 494.566 28.984C495.76 29.6667 496.763 30.7547 497.574 32.248L500.71 38.008ZM535.857 38.84C535.857 39.1813 535.899 39.5653 535.985 39.992C536.113 40.376 536.262 40.7387 536.433 41.08C536.603 41.4213 536.817 41.72 537.073 41.976C537.371 42.232 537.649 42.36 537.905 42.36V43H529.713V42.36C530.011 42.36 530.289 42.2533 530.545 42.04C530.801 41.784 531.014 41.4853 531.185 41.144C531.355 40.76 531.483 40.376 531.569 39.992C531.654 39.5653 531.697 39.1813 531.697 38.84V23.48L516.465 38.392V38.84C516.465 39.1813 516.507 39.5653 516.593 39.992C516.678 40.376 516.806 40.7387 516.977 41.08C517.147 41.4213 517.339 41.72 517.553 41.976C517.809 42.232 518.086 42.36 518.385 42.36V43H510.257V42.36C510.555 42.36 510.833 42.2533 511.089 42.04C511.345 41.784 511.558 41.4853 511.729 41.144C511.899 40.76 512.027 40.376 512.113 39.992C512.198 39.5653 512.241 39.1813 512.241 38.84V20.088C512.241 19.7893 512.198 19.448 512.113 19.064C512.027 18.68 511.899 18.3173 511.729 17.976C511.558 17.6347 511.345 17.3573 511.089 17.144C510.833 16.888 510.555 16.76 510.257 16.76V16.12H518.385V16.76C518.043 16.76 517.745 16.888 517.489 17.144C517.275 17.3573 517.083 17.6347 516.913 17.976C516.785 18.3173 516.678 18.68 516.593 19.064C516.507 19.448 516.465 19.7893 516.465 20.088V35.384L531.697 20.472V20.088C531.697 19.7893 531.654 19.448 531.569 19.064C531.483 18.68 531.355 18.3173 531.185 17.976C531.014 17.6347 530.801 17.3573 530.545 17.144C530.289 16.888 530.011 16.76 529.713 16.76V16.12H537.905V16.76C537.563 16.76 537.243 16.888 536.945 17.144C536.689 17.3573 536.475 17.6347 536.305 17.976C536.177 18.3173 536.07 18.68 535.985 19.064C535.899 19.448 535.857 19.7893 535.857 20.088V38.84ZM569.732 38.84C569.732 39.1813 569.774 39.5653 569.86 39.992C569.988 40.376 570.137 40.7387 570.308 41.08C570.478 41.4213 570.692 41.72 570.948 41.976C571.246 42.232 571.524 42.36 571.78 42.36V43H563.588V42.36C563.886 42.36 564.164 42.2533 564.42 42.04C564.676 41.784 564.889 41.4853 565.06 41.144C565.23 40.76 565.358 40.376 565.444 39.992C565.529 39.5653 565.572 39.1813 565.572 38.84V23.48L550.34 38.392V38.84C550.34 39.1813 550.382 39.5653 550.468 39.992C550.553 40.376 550.681 40.7387 550.852 41.08C551.022 41.4213 551.214 41.72 551.428 41.976C551.684 42.232 551.961 42.36 552.26 42.36V43H544.132V42.36C544.43 42.36 544.708 42.2533 544.964 42.04C545.22 41.784 545.433 41.4853 545.604 41.144C545.774 40.76 545.902 40.376 545.988 39.992C546.073 39.5653 546.116 39.1813 546.116 38.84V20.088C546.116 19.7893 546.073 19.448 545.988 19.064C545.902 18.68 545.774 18.3173 545.604 17.976C545.433 17.6347 545.22 17.3573 544.964 17.144C544.708 16.888 544.43 16.76 544.132 16.76V16.12H552.26V16.76C551.918 16.76 551.62 16.888 551.364 17.144C551.15 17.3573 550.958 17.6347 550.788 17.976C550.66 18.3173 550.553 18.68 550.468 19.064C550.382 19.448 550.34 19.7893 550.34 20.088V35.384L565.572 20.472V20.088C565.572 19.7893 565.529 19.448 565.444 19.064C565.358 18.68 565.23 18.3173 565.06 17.976C564.889 17.6347 564.676 17.3573 564.42 17.144C564.164 16.888 563.886 16.76 563.588 16.76V16.12H571.78V16.76C571.438 16.76 571.118 16.888 570.82 17.144C570.564 17.3573 570.35 17.6347 570.18 17.976C570.052 18.3173 569.945 18.68 569.86 19.064C569.774 19.448 569.732 19.7893 569.732 20.088V38.84ZM564.804 7.48C564.804 8.16267 564.633 8.90933 564.292 9.72C563.95 10.488 563.46 11.2133 562.82 11.896C562.18 12.536 561.412 13.0693 560.516 13.496C559.662 13.9227 558.702 14.136 557.635 14.136C556.654 14.136 555.716 13.944 554.82 13.56C553.966 13.1333 553.22 12.6 552.58 11.96C551.94 11.32 551.428 10.616 551.044 9.848C550.66 9.03733 550.468 8.248 550.468 7.48H550.852C550.894 7.736 551.022 8.09866 551.236 8.568C551.492 8.99467 551.876 9.44267 552.388 9.912C552.9 10.3813 553.561 10.7867 554.372 11.128C555.225 11.4693 556.292 11.64 557.572 11.64C558.894 11.64 559.982 11.4693 560.836 11.128C561.689 10.7867 562.372 10.3813 562.884 9.912C563.396 9.44267 563.758 8.99467 563.972 8.568C564.185 8.09866 564.334 7.736 564.42 7.48H564.804ZM578.583 0.503998C579.82 0.503998 580.716 0.930664 581.271 1.784C581.868 2.59467 582.167 3.55467 582.167 4.664C582.167 5.34667 582.081 6.072 581.911 6.84C581.74 7.608 581.399 8.39733 580.887 9.208C580.375 9.976 579.649 10.7653 578.711 11.576C577.815 12.344 576.641 13.0907 575.191 13.816L574.806 13.24C575.66 12.4293 576.321 11.7253 576.791 11.128C577.303 10.5307 577.687 9.99733 577.943 9.528C578.199 9.016 578.348 8.54667 578.391 8.12C578.476 7.69333 578.519 7.24533 578.519 6.776C578.519 6.43467 578.412 6.17867 578.199 6.008C578.028 5.83733 577.793 5.66667 577.495 5.496C577.153 5.28267 576.812 5.048 576.471 4.792C576.129 4.49333 575.959 3.98133 575.959 3.256C575.959 2.44533 576.215 1.784 576.727 1.272C577.239 0.759998 577.857 0.503998 578.583 0.503998ZM587.031 0.503998C588.268 0.503998 589.164 0.930664 589.719 1.784C590.316 2.59467 590.615 3.55467 590.615 4.664C590.615 5.34667 590.529 6.072 590.359 6.84C590.188 7.608 589.847 8.39733 589.335 9.208C588.823 9.976 588.119 10.7653 587.223 11.576C586.327 12.344 585.153 13.0907 583.703 13.816L583.319 13.24C584.129 12.4293 584.769 11.7253 585.239 11.128C585.751 10.5307 586.135 9.99733 586.391 9.528C586.647 9.016 586.796 8.54667 586.839 8.12C586.924 7.69333 586.967 7.24533 586.967 6.776C586.967 6.43467 586.86 6.17867 586.647 6.008C586.476 5.83733 586.241 5.66667 585.943 5.496C585.601 5.28267 585.26 5.02666 584.919 4.728C584.577 4.42933 584.407 3.93866 584.407 3.256C584.407 2.44533 584.663 1.784 585.175 1.272C585.687 0.759998 586.305 0.503998 587.031 0.503998Z" fill="#E9AD9B"/>
</svg>
